<?xml version="1.0" standalone="no"?>
<!DOCTYPE svg PUBLIC "-//W3C//DTD SVG 20010904//EN"
 "http://www.w3.org/TR/2001/REC-SVG-20010904/DTD/svg10.dtd">
<svg version="1.0" xmlns="http://www.w3.org/2000/svg"
 width="500.000000pt" height="500.000000pt" viewBox="0 0 500.000000 500.000000"
 preserveAspectRatio="xMidYMid meet">
<metadata>
Created by potrace 1.14, written by Peter Selinger 2001-2017
</metadata>
<g transform="translate(0.000000,500.000000) scale(0.100000,-0.100000)"
fill="#000000" stroke="none">
<path d="M3004 4781 c-141 -86 -262 -477 -309 -1001 -4 -36 -8 -83 -10 -105
-2 -22 -7 -96 -11 -165 -3 -69 -8 -143 -9 -165 -1 -22 -3 -68 -4 -101 l-1 -62
-52 -22 c-29 -12 -84 -37 -123 -55 -172 -81 -191 -86 -243 -74 -40 10 -58 23
-117 86 -68 73 -72 76 -125 80 -30 3 -61 10 -68 16 -21 17 -123 10 -183 -12
-30 -10 -81 -27 -114 -36 -111 -31 -207 -102 -218 -161 -2 -10 -12 -37 -22
-59 -15 -34 -16 -53 -9 -125 12 -124 9 -147 -21 -230 -34 -92 -38 -193 -11
-325 26 -131 53 -269 71 -360 8 -44 22 -114 30 -155 8 -41 17 -87 20 -102 8
-41 52 -260 80 -398 37 -178 54 -237 87 -301 79 -152 242 -228 427 -199 83 12
209 50 277 82 58 27 129 90 159 142 47 81 56 119 80 361 13 122 35 323 39 355
3 19 10 73 16 120 15 115 40 252 50 270 10 18 16 -5 25 -95 3 -33 8 -82 11
-110 5 -50 41 -303 48 -340 2 -11 7 -45 11 -75 36 -276 150 -713 240 -925 164
-383 337 -442 474 -162 101 208 152 467 206 1032 10 102 13 949 4 1090 -11
180 -19 294 -24 350 -8 83 -36 348 -40 380 -45 331 -82 534 -140 770 -123 504
-283 805 -428 805 -23 0 -56 -8 -73 -19z m-943 -1858 c9 -10 34 -52 55 -93 58
-118 50 -114 157 -68 139 61 140 61 170 65 39 6 61 -23 113 -150 56 -136 54
-149 -30 -187 -33 -15 -87 -38 -119 -51 -32 -13 -61 -30 -64 -36 -3 -7 15 -53
41 -103 60 -121 60 -122 -84 -193 -163 -79 -171 -77 -240 62 -47 96 -55 101
-106 77 -203 -98 -230 -100 -269 -18 -15 31 -28 62 -29 67 -1 6 -7 19 -13 31
-24 42 -39 100 -33 124 5 20 26 34 118 75 61 27 111 54 112 59 0 12 -51 126
-70 156 -38 58 -7 97 120 151 41 18 82 38 89 45 19 17 59 10 82 -13z m-143
-1739 c12 -8 29 -30 38 -47 23 -45 71 -94 132 -133 38 -25 52 -40 52 -57 0
-74 -142 -50 -224 37 -59 63 -82 149 -50 194 18 26 23 27 52 6z"/>
<path d="M1905 2860 c-55 -27 -104 -56 -109 -63 -6 -9 9 -48 43 -118 l52 -104
-25 -20 c-14 -11 -58 -33 -98 -49 -40 -16 -77 -33 -83 -38 -5 -4 -17 -8 -26
-8 -30 0 -28 -38 7 -112 19 -40 42 -90 52 -110 9 -21 24 -38 32 -38 8 0 39 11
68 25 29 13 56 25 60 25 4 1 27 10 52 21 25 11 56 23 70 25 28 6 32 1 91 -116
37 -75 54 -97 74 -95 6 0 59 24 118 53 125 62 120 45 48 190 -38 78 -43 95
-31 102 8 5 65 30 125 56 134 57 138 60 131 96 -10 50 -78 198 -95 208 -18 9
-219 -71 -233 -93 -4 -7 -8 -9 -8 -5 0 4 -12 3 -26 -2 -33 -13 -48 -2 -80 62
-13 26 -29 48 -35 48 -5 0 -8 3 -6 8 8 12 -37 97 -53 99 -8 1 -60 -20 -115
-47z m-148 -432 c-3 -8 -6 -5 -6 6 -1 11 2 17 5 13 3 -3 4 -12 1 -19z"/>
</g>
</svg>
